<?xml version="1.0" encoding="utf-8"?>
<!-- Generator: Adobe Illustrator 24.1.2, SVG Export Plug-In . SVG Version: 6.00 Build 0)  -->
<svg version="1.1" id="Слой_1" xmlns="http://www.w3.org/2000/svg" xmlns:xlink="http://www.w3.org/1999/xlink" x="0px" y="0px"
	 viewBox="0 0 789.3 519.4" style="enable-background:new 0 0 789.3 519.4;" xml:space="preserve">
<style type="text/css">
	.st0{fill:#FFFFFF;}
	.st1{fill:#12355B;}
	.st2{fill:#FFB538;}
	.st3{fill:#FF5D00;}
	.st4{fill:#FF3F42;}
	.st5{fill:#80214B;}
	.st6{fill:url(#SVGID_1_);}
	.st7{fill:url(#SVGID_2_);}
	.st8{fill:url(#SVGID_3_);}
	.st9{fill:url(#SVGID_4_);}
	.st10{fill:url(#SVGID_5_);}
	.st11{fill:url(#SVGID_6_);}
	.st12{fill:url(#SVGID_7_);}
	.st13{fill:url(#SVGID_8_);}
	.st14{fill:url(#SVGID_9_);}
	.st15{fill:url(#SVGID_10_);}
	.st16{fill:url(#SVGID_11_);}
	.st17{fill:url(#SVGID_12_);}
	.st18{fill:url(#SVGID_13_);}
	.st19{fill:url(#SVGID_14_);}
	.st20{fill:url(#SVGID_15_);}
	.st21{fill:url(#SVGID_16_);}
	.st22{fill:url(#SVGID_17_);}
	.st23{fill:url(#SVGID_18_);}
	.st24{fill:url(#SVGID_19_);}
	.st25{fill:url(#SVGID_20_);}
	.st26{fill:url(#SVGID_21_);}
	.st27{fill:url(#SVGID_22_);}
	.st28{fill:url(#SVGID_23_);}
	.st29{fill:url(#SVGID_24_);}
	.st30{fill:url(#SVGID_25_);}
	.st31{fill:url(#SVGID_26_);}
	.st32{fill:url(#SVGID_27_);}
	.st33{fill:url(#SVGID_28_);}
	.st34{fill:url(#SVGID_29_);}
	.st35{fill:url(#SVGID_30_);}
	.st36{fill:url(#SVGID_31_);}
	.st37{fill:url(#SVGID_32_);}
	.st38{fill:url(#SVGID_33_);}
</style>
<g>
	<g>
		<g>
			<path class="st1" d="M63.2,340.7v73h-0.4l-49.1-44.3l0.3,41.4H0v-72.9h0.6l49,45l-0.3-42.2H63.2z"/>
			<path class="st1" d="M126.3,391.3c1.3,2,3.1,3.7,5.3,5c2.2,1.3,4.6,1.9,7.1,1.9c2.7,0,5.2-0.6,7.5-1.9c2.3-1.3,4.1-2.9,5.4-5
				c1.3-2,2-4.2,2-6.4v-44.2h13.6v44.5c0,5-1.3,9.5-3.8,13.6c-2.5,4-6,7.2-10.3,9.4c-4.4,2.3-9.1,3.4-14.3,3.4
				c-5.2,0-10-1.1-14.3-3.4c-4.3-2.3-7.7-5.4-10.2-9.4c-2.5-4-3.8-8.6-3.8-13.6v-44.5h13.8v44.2C124.3,387.1,125,389.3,126.3,391.3z
				"/>
			<path class="st1" d="M257.1,340.7V354h-17.1v56.8h-13.8V354h-16.4v-13.3H257.1z"/>
			<path class="st1" d="M338.9,410.8l-14.8-22.3h-9.2v22.3h-13.8v-70.1h21.2c8.7,0,15.4,2.1,20.2,6.3c4.8,4.2,7.2,10,7.2,17.3
				c0,4.3-0.9,8.4-2.7,12.1c-1.8,3.8-4.6,6.7-8.3,8.9l16.3,25.4H338.9z M314.9,375.2h9.8c3.7,0,6.5-1.1,8.2-3.3
				c1.7-2.2,2.6-4.6,2.6-7.1c0-2.5-0.7-5-2.2-7.3c-1.5-2.3-4.3-3.5-8.5-3.5h-9.9V375.2z"/>
			<path class="st1" d="M411,340.7v70.1h-13.8v-70.1H411z"/>
			<path class="st1" d="M500.9,347c4.7,4.2,7,10,7,17.3c0,4.2-0.8,8.1-2.4,11.8c-1.6,3.7-4.3,6.7-7.9,9c-3.7,2.4-8.4,3.5-14.1,3.5
				h-9.9v22.2h-13.8v-70.1H481C489.5,340.7,496.2,342.8,500.9,347z M489.6,373.4c1.6-1.2,2.7-2.6,3.4-4.1s1-3.1,1-4.6
				c0-2.5-0.7-4.9-2.2-7.2c-1.5-2.3-4.3-3.5-8.5-3.5h-9.9v21.1h9.8C485.9,375.2,488,374.6,489.6,373.4z"/>
			<path class="st1" d="M588.8,410.8L574,388.5h-9.2v22.3H551v-70.1h21.2c8.7,0,15.4,2.1,20.2,6.3c4.8,4.2,7.2,10,7.2,17.3
				c0,4.3-0.9,8.4-2.7,12.1c-1.8,3.8-4.6,6.7-8.3,8.9l16.3,25.4H588.8z M564.8,375.2h9.8c3.7,0,6.5-1.1,8.2-3.3
				c1.7-2.2,2.6-4.6,2.6-7.1c0-2.5-0.7-5-2.2-7.3c-1.5-2.3-4.3-3.5-8.5-3.5h-9.9V375.2z"/>
			<path class="st1" d="M694.8,340.7V354h-34v15h30.1v13.3h-30.1v15.1h35.3v13.3H647v-70.1H694.8z"/>
			<path class="st1" d="M782.3,347c4.7,4.2,7,10,7,17.3c0,4.2-0.8,8.1-2.4,11.8c-1.6,3.7-4.3,6.7-7.9,9c-3.7,2.4-8.4,3.5-14.1,3.5
				h-9.9v22.2h-13.8v-70.1h21.2C770.9,340.7,777.6,342.8,782.3,347z M771,373.4c1.6-1.2,2.7-2.6,3.4-4.1c0.7-1.6,1-3.1,1-4.6
				c0-2.5-0.7-4.9-2.2-7.2c-1.5-2.3-4.3-3.5-8.5-3.5h-9.9v21.1h9.8C767.3,375.2,769.4,374.6,771,373.4z"/>
		</g>
	</g>
	<g>
		<g>
			<path class="st1" d="M239.3,495.4l1.1-1.4l12.3-13.9h9.6L246.8,497l15.6,20.8H253l-11.6-16.1l-1.8,1.8v14.3h-7.5v-37.8h7.5v13.4
				L239.3,495.4z"/>
			<path class="st1" d="M292,480.1v37.8h-7.4v-37.8H292z"/>
			<path class="st1" d="M341.1,480.1v7.2H332v30.6h-7.4v-30.6h-8.8v-7.2H341.1z"/>
			<path class="st1" d="M387.3,517.1c-2.1,0.8-4.4,1.2-6.8,1.2c-3.9,0-7.4-0.9-10.3-2.6c-2.9-1.7-5.1-4-6.7-6.9
				c-1.5-2.9-2.3-6.1-2.3-9.5c0-3.8,0.8-7.2,2.3-10.2c1.5-3,3.7-5.3,6.5-6.9s6-2.5,9.6-2.5c2.3,0,4.4,0.3,6.4,0.9
				c2,0.6,3.7,1.4,5.1,2.3l-2.9,7c-2.7-2-5.5-3.1-8.3-3.1c-1.9,0-3.7,0.5-5.4,1.6c-1.7,1.1-3,2.5-4,4.3c-1,1.8-1.5,3.9-1.5,6.1
				c0,2.4,0.5,4.6,1.4,6.4c0.9,1.8,2.2,3.3,3.9,4.3c1.7,1,3.7,1.5,6,1.5c1.8,0,3.5-0.3,5-0.9c1.5-0.6,2.6-1.3,3.5-2.1l3.1,6.7
				C390.9,515.5,389.4,516.3,387.3,517.1z"/>
			<path class="st1" d="M447.6,517.9h-7.4v-15.3h-16.9v15.3h-7.4v-37.8h7.4v15.2h16.9v-15.2h7.4V517.9z"/>
			<path class="st1" d="M499.6,480.1v7.2h-18.3v8.1h16.2v7.2h-16.2v8.2h19v7.2h-26.5v-37.8H499.6z"/>
			<path class="st1" d="M558.5,480.1v39.3h-0.2l-26.4-23.9l0.2,22.3h-7.5v-39.2h0.3l26.4,24.2l-0.2-22.7H558.5z"/>
		</g>
	</g>
	<g>
		<linearGradient id="SVGID_1_" gradientUnits="userSpaceOnUse" x1="162.7548" y1="-14.7131" x2="642.8057" y2="229.1426">
			<stop  offset="0" style="stop-color:#FFB538"/>
			<stop  offset="0.3128" style="stop-color:#FF5D00"/>
			<stop  offset="0.6089" style="stop-color:#FF3F42"/>
			<stop  offset="1" style="stop-color:#8D244A"/>
		</linearGradient>
		<path class="st6" d="M325.6,90.6h6.7V63.8c0-3,2.3-5.5,5.2-5.8v-6.7c-6.6,0.3-11.9,5.8-11.9,12.5V90.6z"/>
		<linearGradient id="SVGID_2_" gradientUnits="userSpaceOnUse" x1="174.5193" y1="-37.8724" x2="654.5702" y2="205.9832">
			<stop  offset="0" style="stop-color:#FFB538"/>
			<stop  offset="0.3128" style="stop-color:#FF5D00"/>
			<stop  offset="0.6089" style="stop-color:#FF3F42"/>
			<stop  offset="1" style="stop-color:#8D244A"/>
		</linearGradient>
		<path class="st7" d="M352.3,46.3h-0.4c-3.4,0-6.4,2.1-7.6,5c-0.5,1-0.7,2.2-0.7,3.3c0,1.2,0.2,2.3,0.7,3.3c1.3,2.9,4.2,5,7.6,5
			h0.4h9.2c4.6,0,8.3-3.7,8.3-8.3c0-4.6-3.7-8.3-8.3-8.3H352.3z"/>
		<linearGradient id="SVGID_3_" gradientUnits="userSpaceOnUse" x1="184.5057" y1="-57.5315" x2="664.5566" y2="186.3241">
			<stop  offset="0" style="stop-color:#FFB538"/>
			<stop  offset="0.3128" style="stop-color:#FF5D00"/>
			<stop  offset="0.6089" style="stop-color:#FF3F42"/>
			<stop  offset="1" style="stop-color:#8D244A"/>
		</linearGradient>
		<path class="st8" d="M445.6,90.6V63.8c0-6.7-5.3-12.1-11.9-12.5v6.7c2.9,0.3,5.2,2.8,5.2,5.8v26.8H445.6z"/>
		<linearGradient id="SVGID_4_" gradientUnits="userSpaceOnUse" x1="186.3707" y1="-61.203" x2="666.4216" y2="182.6526">
			<stop  offset="0" style="stop-color:#FFB538"/>
			<stop  offset="0.3128" style="stop-color:#FF5D00"/>
			<stop  offset="0.6089" style="stop-color:#FF3F42"/>
			<stop  offset="1" style="stop-color:#8D244A"/>
		</linearGradient>
		<path class="st9" d="M419.3,46.3h-0.4h-9.2c-4.6,0-8.3,3.7-8.3,8.3c0,4.6,3.7,8.3,8.3,8.3h9.2h0.4c3.4,0,6.4-2.1,7.6-5
			c0.5-1,0.7-2.2,0.7-3.3c0-1.2-0.2-2.3-0.7-3.3C425.6,48.4,422.7,46.3,419.3,46.3z"/>
		<linearGradient id="SVGID_5_" gradientUnits="userSpaceOnUse" x1="155.367" y1="-0.1694" x2="635.4178" y2="243.6862">
			<stop  offset="0" style="stop-color:#FFB538"/>
			<stop  offset="0.3128" style="stop-color:#FF5D00"/>
			<stop  offset="0.6089" style="stop-color:#FF3F42"/>
			<stop  offset="1" style="stop-color:#8D244A"/>
		</linearGradient>
		<path class="st10" d="M522.4,89.7c0-0.5,0.1-0.9,0.1-1.3c0.1-1.8,0.2-3.5,0.2-5.3c0-54.5-38.9-83-77.4-83c-1.5,0-2.9,0-4.4,0.1
			c-0.5,0-1,0.1-1.4,0.1c-1,0.1-1.9,0.1-2.9,0.3c-0.6,0.1-1.1,0.2-1.7,0.2c-0.9,0.1-1.7,0.2-2.6,0.4c-0.6,0.1-1.2,0.2-1.8,0.3
			c-0.8,0.2-1.7,0.3-2.5,0.5c-0.6,0.1-1.2,0.3-1.8,0.4c-0.8,0.2-1.6,0.4-2.4,0.6c-0.6,0.2-1.2,0.4-1.8,0.5c-0.8,0.2-1.6,0.5-2.3,0.8
			c-0.6,0.2-1.2,0.4-1.8,0.6c-0.8,0.3-1.5,0.6-2.3,0.9c-0.6,0.2-1.2,0.5-1.7,0.7c-0.8,0.3-1.5,0.7-2.3,1c-0.6,0.3-1.1,0.5-1.7,0.8
			c-0.8,0.4-1.5,0.8-2.3,1.2c-0.5,0.3-1.1,0.6-1.6,0.9c-0.8,0.4-1.5,0.9-2.3,1.4c-0.5,0.3-1,0.6-1.5,0.9c-0.8,0.5-1.6,1.1-2.4,1.6
			c-0.4,0.3-0.8,0.6-1.3,0.9c-1.1,0.8-2.3,1.7-3.4,2.5c-0.1,0.1-0.2,0.2-0.3,0.2c-1.1,0.9-2.2,1.8-3.3,2.8c-0.4,0.4-0.8,0.7-1.2,1.1
			c-0.7,0.6-1.4,1.3-2.1,2c-0.5,0.5-0.9,0.9-1.4,1.4c-0.5,0.5-1,1-1.4,1.5C369.6,9.7,348.1,0,325.8,0c-38.4,0-77.4,28.5-77.4,83
			c0,32.4,22.3,69.6,66.4,110.6c0,0,0,0,0,0c7.8,7.7,20.8,12.5,33.9,12.5c22.7,0,40.7-17.3,42.9-40.2c31.2-3.1,55.6-29.4,55.6-61.4
			c0-2.8-2.2-5-5-5c-2.8,0-5,2.2-5,5c0,28.5-23.2,51.7-51.7,51.7c-28.5,0-51.7-23.2-51.7-51.7c0-2.8-2.2-5-5-5c-2.8,0-5,2.2-5,5
			c0,32.7,25.5,59.4,57.7,61.5c-2.1,17.5-15.5,30.1-32.8,30.1c-10.5,0-21.1-3.8-27-9.7c0,0-0.1,0-0.1-0.1c0,0,0-0.1-0.1-0.1
			c-28.8-26.8-63.2-66.5-63.2-103.2c0-47.9,33.9-73,67.4-73c21.2,0,41.6,10,55.9,27.4c0.1,0.1,0.1,0.1,0.2,0.2
			c0.2,0.2,0.3,0.4,0.5,0.5c0,0,0,0,0.1,0c0.1,0.1,0.2,0.1,0.3,0.2c0.2,0.1,0.4,0.3,0.6,0.4c0.1,0.1,0.2,0.1,0.3,0.1
			c0.2,0.1,0.4,0.2,0.7,0.2c0.1,0,0.2,0,0.3,0.1c0.2,0,0.5,0.1,0.7,0.1c0.1,0,0.1,0,0.2,0h0c0.1,0,0.1,0,0.2,0c0.2,0,0.5,0,0.7-0.1
			c0.1,0,0.2,0,0.3-0.1c0.2-0.1,0.5-0.1,0.7-0.2c0.1,0,0.2-0.1,0.3-0.1c0.2-0.1,0.5-0.3,0.7-0.4c0.1,0,0.1-0.1,0.2-0.1
			c0.3-0.2,0.5-0.5,0.8-0.7C403.8,20,424.1,10,445.4,10c33.5,0,67.4,25.1,67.4,73c0,1.7-0.1,3.4-0.2,5c0,0.5-0.1,1-0.2,1.5
			c-0.1,1.2-0.3,2.5-0.5,3.7c-0.1,0.5-0.2,1-0.3,1.5c-0.2,1.3-0.5,2.7-0.8,4c-0.1,0.4-0.2,0.7-0.3,1.1
			c-12.9,50.7-78.6,103.3-105.3,122.9c-5-5-12-8.2-19.6-8.2c-15.3,0-27.7,12.4-27.7,27.7c0,15.3,12.4,27.7,27.7,27.7
			c15.3,0,27.7-12.4,27.7-27.7c0-4-0.9-7.9-2.4-11.3c6.4-4.7,14-10.5,22.1-17.1c0,0,0,0,0.1-0.1c1.2-1,2.5-2,3.7-3.1
			c0.3-0.3,0.7-0.5,1-0.8c1-0.8,1.9-1.6,2.9-2.5c1.2-1,2.4-2,3.6-3c0.2-0.1,0.3-0.3,0.5-0.4c35-30.3,70.7-69.9,77-109
			c0.1-0.4,0.1-0.7,0.2-1.1C522.1,92.5,522.3,91.1,522.4,89.7z M385.6,260c-9.8,0-17.7-7.9-17.7-17.7s7.9-17.7,17.7-17.7
			c6.1,0,11.5,3.1,14.7,7.8c0,0,0,0,0,0c0,0,0,0,0,0c0,0,0,0,0,0c1.9,2.8,3,6.2,3,9.9C403.3,252.1,395.3,260,385.6,260z"/>
		<linearGradient id="SVGID_6_" gradientUnits="userSpaceOnUse" x1="193.6837" y1="-75.5992" x2="673.7346" y2="168.2565">
			<stop  offset="0" style="stop-color:#FFB538"/>
			<stop  offset="0.3128" style="stop-color:#FF5D00"/>
			<stop  offset="0.6089" style="stop-color:#FF3F42"/>
			<stop  offset="1" style="stop-color:#8D244A"/>
		</linearGradient>
		<path class="st11" d="M623.6,52.8c0-29.1-17.4-52.8-38.8-52.8c-21.4,0-38.7,23.7-38.7,52.8c0,21.9,9.6,41,24.2,49l-5.2,125.8
			c0,10.8,8.9,19.7,19.7,19.7c10.9,0,19.7-8.9,19.7-19.9l-5.1-125.6C614,93.8,623.6,74.7,623.6,52.8z M592.7,93.9
			c-2.1,0.7-3.5,2.7-3.4,4.9l5.3,128.7c0,5.3-4.3,9.7-9.7,9.7c-5.3,0-9.7-4.4-9.7-9.5l5.3-128.9c0.1-2.2-1.3-4.2-3.3-4.9
			c-12.4-5.3-21-22.1-21-41.2c0-23.6,12.9-42.8,28.7-42.8c15.9,0,28.8,19.2,28.8,42.8C613.6,71.8,605,88.6,592.7,93.9z"/>
		<linearGradient id="SVGID_7_" gradientUnits="userSpaceOnUse" x1="222.4804" y1="-132.288" x2="702.5313" y2="111.5677">
			<stop  offset="0" style="stop-color:#FFB538"/>
			<stop  offset="0.3128" style="stop-color:#FF5D00"/>
			<stop  offset="0.6089" style="stop-color:#FF3F42"/>
			<stop  offset="1" style="stop-color:#8D244A"/>
		</linearGradient>
		<path class="st12" d="M587.9,25.6c-2.7-0.8-5.4,0.8-6.2,3.4c-0.8,2.7,0.8,5.4,3.4,6.2c5.3,1.5,9.3,9.1,9.3,17.6
			c0,8.4-4,16-9.2,17.6c-2.6,0.8-4.1,3.6-3.4,6.2c0.6,2.2,2.6,3.6,4.8,3.6c0.5,0,1-0.1,1.4-0.2c9.6-2.9,16.3-14,16.3-27.1
			C604.4,39.6,597.6,28.4,587.9,25.6z"/>
		<linearGradient id="SVGID_8_" gradientUnits="userSpaceOnUse" x1="145.3084" y1="19.6319" x2="625.3593" y2="263.4875">
			<stop  offset="0" style="stop-color:#FFB538"/>
			<stop  offset="0.3128" style="stop-color:#FF5D00"/>
			<stop  offset="0.6089" style="stop-color:#FF3F42"/>
			<stop  offset="1" style="stop-color:#8D244A"/>
		</linearGradient>
		<path class="st13" d="M181.1,75.6c2.8,0,5-2.2,5-5V5c0-2.8-2.2-5-5-5s-5,2.2-5,5v65.6C176.1,73.4,178.3,75.6,181.1,75.6z"/>
		<linearGradient id="SVGID_9_" gradientUnits="userSpaceOnUse" x1="149.3102" y1="11.7538" x2="629.3611" y2="255.6094">
			<stop  offset="0" style="stop-color:#FFB538"/>
			<stop  offset="0.3128" style="stop-color:#FF5D00"/>
			<stop  offset="0.6089" style="stop-color:#FF3F42"/>
			<stop  offset="1" style="stop-color:#8D244A"/>
		</linearGradient>
		<path class="st14" d="M200.6,75.6c2.8,0,5-2.2,5-5V5c0-2.8-2.2-5-5-5s-5,2.2-5,5v65.6C195.6,73.4,197.8,75.6,200.6,75.6z"/>
		<linearGradient id="SVGID_10_" gradientUnits="userSpaceOnUse" x1="115.2832" y1="78.739" x2="595.3341" y2="322.5946">
			<stop  offset="0" style="stop-color:#FFB538"/>
			<stop  offset="0.3128" style="stop-color:#FF5D00"/>
			<stop  offset="0.6089" style="stop-color:#FF3F42"/>
			<stop  offset="1" style="stop-color:#8D244A"/>
		</linearGradient>
		<path class="st15" d="M220.1,0c-2.8,0-5,2.2-5,5v65.6c0,10-6.7,19.1-16.2,22c-2.2,0.7-3.6,2.7-3.5,5l5.2,130
			c0,5.3-4.4,9.7-9.7,9.7c-5.4,0-9.7-4.4-9.7-9.5l5.2-130.2c0.1-2.3-1.3-4.3-3.5-5c-9.6-3-16.3-12.1-16.3-22.1V5c0-2.8-2.2-5-5-5
			c-2.8,0-5,2.2-5,5v65.6c0,13,7.9,25,19.7,30.2l-5.1,126.8c0,10.9,8.8,19.7,19.7,19.7s19.7-8.8,19.7-19.9l-5-126.6
			c11.7-5.3,19.6-17.2,19.6-30.2V5C225.1,2.3,222.9,0,220.1,0z"/>
		<linearGradient id="SVGID_11_" gradientUnits="userSpaceOnUse" x1="104.6697" y1="99.6325" x2="584.7206" y2="343.4881">
			<stop  offset="0" style="stop-color:#FFB538"/>
			<stop  offset="0.3128" style="stop-color:#FF5D00"/>
			<stop  offset="0.6089" style="stop-color:#FF3F42"/>
			<stop  offset="1" style="stop-color:#8D244A"/>
		</linearGradient>
		<path class="st16" d="M382,238.8c-0.9,0.9-1.5,2.2-1.5,3.5c0,1.3,0.5,2.6,1.5,3.5c0.5,0.5,1,0.9,1.6,1.1c0.6,0.3,1.2,0.4,1.9,0.4
			c1.3,0,2.6-0.5,3.5-1.5c1-0.9,1.5-2.2,1.5-3.5c0-1.3-0.5-2.6-1.5-3.5C387.3,236.9,383.9,236.9,382,238.8z"/>
	</g>
</g>
</svg>
